<?xml version="1.0" encoding="UTF-8"?>
<svg width="85px" height="44px" viewBox="0 0 85 44" version="1.1" xmlns="http://www.w3.org/2000/svg" xmlns:xlink="http://www.w3.org/1999/xlink">
    <!-- Generator: Sketch 51.1 (57501) - http://www.bohemiancoding.com/sketch -->
    <title>Group</title>
    <desc>Created with Sketch.</desc>
    <defs>
        <polygon id="path-1" points="0 0.156111111 59.4151034 0.156111111 59.4151034 24.9998611 0 24.9998611"></polygon>
        <polygon id="path-3" points="0.343659187 0.32452381 26.4635177 0.32452381 26.4635177 28.7165678 0.343659187 28.7165678"></polygon>
    </defs>
    <g id="Symbols" stroke="none" stroke-width="1" fill="white" fill-rule="evenodd">
        <g id="NAV_What-We-Do" transform="translate(-27.000000, -18.000000)">
            <g id="Group" transform="translate(27.000000, 18.000000)">
                <g id="Group-3" transform="translate(0.000000, 19.000000)">
                    <mask id="mask-2" fill="white">
                        <use xlink:href="#path-1"></use>
                    </mask>
                    <g id="Clip-2"></g>
                    <path d="M44.8868276,13.7366667 L47.3192414,8.00888889 L49.7523448,13.7366667 L44.8868276,13.7366667 Z M48.8868276,0.665833333 C48.8378621,0.552638889 48.6957931,0.460277778 48.5737241,0.460277778 L45.6088966,0.460277778 C45.4854483,0.460277778 45.3468276,0.553333333 45.299931,0.667222222 L35.2309655,24.6963889 L40.0116552,24.6963889 C40.1344138,24.6963889 40.2737241,24.6033333 40.322,24.4901389 L43.1171724,17.9061111 L51.5213103,17.9061111 L54.3164828,24.4901389 C54.3654483,24.6033333 54.5047586,24.6963889 54.6275172,24.6963889 L59.4151034,24.6963889 L48.8868276,0.665833333 Z M36.1033793,18.1519444 C36.1033793,20.0734722 35.3206207,21.8241667 33.8992414,23.0818056 C32.502,24.3186111 30.5702759,24.9998611 28.459931,24.9998611 C25.6282069,24.9998611 23.2813103,24.2915278 21.0757931,22.7672222 L20.8171724,22.58875 L20.8171724,17.1776389 C20.8171724,17.0533333 20.9164828,16.9533333 21.039931,16.9533333 C21.1109655,16.9533333 21.1744138,16.9880556 21.2157931,17.0394444 C22.1130345,18.2213889 24.4964828,20.8304167 28.0544138,20.8304167 C30.6054483,20.8304167 31.5564828,19.4158333 31.5564828,18.5234722 C31.5564828,16.66375 29.442,15.4943056 26.9957931,14.1394444 C24.0302759,12.4991667 20.6695862,10.63875 20.6695862,6.90333333 C20.6695862,4.87902778 21.4695862,3.16791667 22.9833793,1.95472222 C24.4516552,0.778333333 26.4985517,0.156111111 28.9026897,0.156111111 C30.9426897,0.156111111 32.9895862,0.747083333 34.8206207,1.86444444 L35.1068276,2.03944444 L35.1068276,6.89430556 C35.1068276,7.01861111 35.0075172,7.12 34.884069,7.12 C34.8351034,7.12 34.7902759,7.10333333 34.7537241,7.07625 C33.8951034,6.26027778 31.5523448,4.32625 28.6082069,4.32625 C26.6109655,4.32625 25.2164828,5.20611111 25.2164828,6.46375 C25.2164828,8.03388889 27.1164828,9.01583333 29.3171724,10.1540278 C32.3413103,11.7172222 36.1033793,13.6616667 36.1033793,18.1519444 Z M10.1702759,9.43875 C9.46682759,10.1616667 8.24337931,10.5276389 6.53648276,10.5276389 L4.80544828,10.5276389 L4.80544828,4.49569444 L6.53648276,4.49569444 C10.3909655,4.49569444 10.8654483,6.14569444 10.8868276,7.38805556 C10.9033793,8.24291667 10.662,8.93319444 10.1702759,9.43875 Z M20.1675172,23.295 C18.6957931,21.4318056 18.0868276,20.6616667 17.104069,19.2026389 L17.022,19.0804167 C15.4075172,16.6651389 14.0868276,14.6880556 12.2309655,13.2706944 C14.544069,12.0866667 15.8026897,10.07625 15.8026897,7.51166667 C15.8026897,5.36513889 14.9544138,3.56930556 13.3488966,2.31722222 C11.7909655,1.10263889 9.57510345,0.460277778 6.942,0.460277778 L-6.89655172e-05,0.460277778 L-6.89655172e-05,24.6963889 L4.5082069,24.6963889 C4.67165517,24.6963889 4.80544828,24.5616667 4.80544828,24.3970833 L4.80544828,14.6977778 L5.72406897,14.6977778 C7.2882069,14.6977778 8.64751724,15.0561111 11.9178621,19.71375 L15.2454483,24.4526389 C15.339931,24.5859722 15.5509655,24.6963889 15.7144138,24.6963889 L21.2751034,24.6963889 L20.1675172,23.295 Z" id="Fill-1" fill="#575756" mask="url(#mask-2)"></path>
                </g>
                <g id="Group-6" transform="translate(55.000000, 0.000000)">
                    <mask id="mask-4" fill="white">
                        <use xlink:href="#path-3"></use>
                    </mask>
                    <g id="Clip-5"></g>
                    <path d="M6.64661842,26.7859881 C6.57982895,26.8937024 6.61251316,27.0414643 6.71980263,27.1125833 L6.91875,27.2458452 C7.02461842,27.3183452 7.18164474,27.2997024 7.26690789,27.2037262 L7.81401316,26.5926548 C7.59232895,26.3799881 7.37988158,26.1569643 7.17667105,25.9263452 L6.64661842,26.7859881 Z M9.37148684,28.3188452 C9.32814474,28.4382976 9.39209211,28.5750119 9.51288158,28.6240357 L9.69619737,28.6979167 C9.81485526,28.7469405 9.96477632,28.6958452 10.0287237,28.585369 L10.1694079,28.3374881 C9.94275,28.2104405 9.72248684,28.0771786 9.50648684,27.9370119 L9.37148684,28.3188452 Z M4.31253947,24.731131 C4.22443421,24.8236548 4.22443421,24.9741786 4.31396053,25.0660119 L4.50864474,25.2669405 C4.59817105,25.3601548 4.75448684,25.3725833 4.85893421,25.296631 L6.06185526,24.4183452 C5.87001316,24.1055595 5.69451316,23.7837976 5.53606579,23.452369 L4.31253947,24.731131 Z M26.4461447,10.7282738 C26.4305132,10.6177976 26.33175,10.5508214 26.2145132,10.576369 L25.33275,10.7710833 L26.38575,10.0495357 C26.3146974,9.45296429 26.1946184,8.87296429 26.0304868,8.31229762 C25.9935395,8.1969881 25.8748816,8.14382143 25.7590658,8.19560714 L24.0822237,8.95029762 L25.6738026,7.28694048 C25.4776974,6.80636905 25.2496184,6.34375 24.9888553,5.89977381 C24.9270395,5.79067857 24.7913289,5.76236905 24.6897237,5.83832143 L22.4878026,7.44505952 L24.1809868,4.70732143 C23.9003289,4.34620238 23.5976447,4.00303571 23.2743553,3.67989286 C23.1841184,3.60117857 23.0519605,3.60739286 22.9716711,3.69853571 L20.6319079,6.31405952 L21.9684079,2.55855952 C21.6465395,2.32103571 21.3111711,2.10146429 20.9637237,1.89915476 C20.8543026,1.83770238 20.71575,1.8749881 20.6546447,1.98339286 L18.6012237,5.59458333 L19.1596974,1.28186905 C19.1760395,1.15965476 19.0929079,1.02570238 18.9735395,0.981511905 C18.7085132,0.888297619 18.4399342,0.805440476 18.1663816,0.731559524 L18.1649605,0.73225 C18.0406184,0.697035714 17.9070395,0.767464286 17.8700921,0.888297619 L16.4923816,5.31286905 L16.49025,5.31563095 L16.0838289,0.552035714 C16.0738816,0.426369048 15.9573553,0.324178571 15.8273289,0.324178571 L15.0741711,0.324178571 C14.9448553,0.324178571 14.8290395,0.427059524 14.8190921,0.55272619 L14.3984605,5.46753571 L12.9440132,0.746059524 C12.9070658,0.624535714 12.7727763,0.547892857 12.6448816,0.574130952 L11.9499868,0.71775 C11.8220921,0.743988095 11.7318553,0.867583333 11.7489079,0.99325 L12.4175132,6.03510714 L9.91646053,1.57394048 C9.85393421,1.46346429 9.70685526,1.41375 9.58748684,1.46553571 L8.97643421,1.72929762 C8.85848684,1.78108333 8.79667105,1.92055952 8.84072368,2.0400119 L10.6319605,6.98036905 L7.13475,2.99908333 C7.04948684,2.90310714 6.89459211,2.88515476 6.78943421,2.95972619 L6.28353947,3.31670238 C6.17909211,3.39127381 6.14853947,3.53972619 6.21675,3.64744048 L9.11782895,8.24739286 L4.72109211,4.95865476 C4.61735526,4.88132143 4.46317105,4.89582143 4.37648684,4.98903571 L3.98569737,5.41022619 C3.89830263,5.50482143 3.90043421,5.65603571 3.99067105,5.74717857 L7.93196053,9.77058333 L2.78348684,7.36565476 C2.66482895,7.31110714 2.51703947,7.35529762 2.45238158,7.46508333 L2.18238158,7.91941667 C2.11701316,8.0285119 2.15253947,8.17696429 2.25769737,8.24739286 L7.11627632,11.4719167 L1.40648684,10.11375 C1.28072368,10.083369 1.14501316,10.15725 1.10522368,10.2767024 L0.950328947,10.7365595 C0.91125,10.8567024 0.976618421,10.9941071 1.09598684,11.0424405 L6.13788158,13.0462024 C7.93196053,10.2069643 11.0220395,8.19422619 14.6840921,7.84760714 C14.9420132,7.82136905 15.2034868,7.80825 15.4670921,7.80825 C19.5902763,7.80825 22.9311711,11.054869 22.9311711,15.0617024 C22.9311711,18.8662262 19.9185395,21.9851071 16.0838289,22.2902976 L16.08525,22.2902976 C20.0180132,21.973369 23.3134342,19.7376071 25.0769605,16.608369 C26.0589079,14.8662976 26.5662237,12.8473452 26.4461447,10.7282738 Z M4.65217105,20.7539881 L2.47369737,22.2461071 C2.36711842,22.3192976 2.33585526,22.46775 2.40264474,22.5754643 L2.57317105,22.8468214 C2.63996053,22.9545357 2.79059211,22.9994167 2.90853947,22.94625 L4.96835526,22.0203214 C4.83761842,21.6087976 4.73317105,21.1862262 4.65217105,20.7539881 Z M0.552434211,14.0094167 L5.23053947,14.8241786 C5.44867105,14.2773214 5.71156579,13.7497976 6.01353947,13.2478214 L0.652618421,13.0800357 C0.523302632,13.0758929 0.406065789,13.1753214 0.392565789,13.3009881 L0.344960526,13.740131 C0.331460526,13.8664881 0.424539474,13.986631 0.552434211,14.0094167 Z M5.03372368,15.3606786 L0.554565789,16.1340119 C0.426671053,16.1561071 0.332881579,16.2769405 0.346381579,16.4019167 L0.389013158,16.8003214 C0.403934211,16.9266786 0.520460526,17.0261071 0.651197368,17.0219643 L4.63938158,16.8907738 C4.73317105,16.3687738 4.86532895,15.857131 5.03372368,15.3606786 Z M4.49443421,18.072869 L1.21393421,19.4434643 C1.09456579,19.4931786 1.03203947,19.6319643 1.07467105,19.7507262 L1.19546053,20.08975 C1.23880263,20.2092024 1.37735526,20.2830833 1.50382895,20.2554643 L4.50153947,19.5932976 C4.46317105,19.0809643 4.46317105,18.5727738 4.49443421,18.072869 Z" id="Fill-4" fill="#4C2178" mask="url(#mask-4)"></path>
                </g>
                <path d="M83.9480394,19.937325 L78.9902095,17.8693089 C77.2320841,20.7917535 74.2007851,22.864758 70.6125601,23.231756 L70.6125601,23.2310434 C70.3512171,23.2595481 70.0842839,23.2752257 69.8138568,23.2752257 C65.7609444,23.2752257 62.4738927,19.9230727 62.4738927,15.7891782 C62.4738927,11.9196649 65.3528581,8.73640227 69.0438035,8.34375 C63.0371078,8.94092351 58.5879882,14.3218987 59.0303147,20.4667999 L60.1134206,20.2173837 L59.2658029,20.8252465 C59.2637066,20.8273844 59.2602127,20.8288096 59.2574176,20.8309475 C59.1532997,20.9057723 59.0848194,21.0725248 59.1057827,21.200796 L59.1043852,21.2015086 L59.1071803,21.2036464 C59.1882386,21.8107966 59.3168137,22.4015566 59.4887131,22.970938 L61.3425711,22.0958436 L59.9303408,23.6457868 C59.8429935,23.7405649 59.8143436,23.9158689 59.866752,24.034876 L59.866752,24.0355886 C60.0680001,24.5251569 60.3013919,24.9954845 60.56553,25.4458588 L62.9099302,23.6493499 L61.3572455,26.2846096 C61.295753,26.395778 61.3090298,26.5646683 61.3879917,26.6637222 C61.6675029,27.0243066 61.9686762,27.3670757 62.287319,27.6913167 L64.7365359,24.8166175 L63.486422,28.499425 C63.4605672,28.6191447 63.511578,28.7645187 63.6080094,28.83293 L63.6080094,28.8343552 C63.9287485,29.0702317 64.2599693,29.2890052 64.6037681,29.490676 L66.7294507,25.5634407 L66.1823076,30.0101742 C66.1662357,30.1370201 66.2472939,30.2738427 66.3646886,30.3194502 C66.6253328,30.4163662 66.8908684,30.5018803 67.159898,30.5781304 L67.1612955,30.5781304 C67.2842805,30.6130487 67.4163495,30.5403617 67.452686,30.4163662 L68.8048214,25.8570391 C68.8069177,25.8506255 68.8097128,25.8470624 68.8097128,25.8470624 L69.2087151,30.7626984 C69.2191967,30.89382 69.3330976,31 69.4616727,31 L70.2016786,31 C70.329555,31 70.4420582,30.8923947 70.4532387,30.7626984 L70.8662165,25.6902866 L72.2966151,30.5638781 C72.3336503,30.6878735 72.4650205,30.7676867 72.5908006,30.7413198 L73.2749043,30.5923828 C73.398588,30.5660159 73.4887303,30.4377447 73.4726584,30.308761 L72.8144095,25.1038023 L75.2748069,29.7094496 C75.3349018,29.824181 75.4809464,29.8733516 75.5969435,29.8206179 L76.1971938,29.548398 C76.3138898,29.4956643 76.3753822,29.3517156 76.3327568,29.2284328 L74.5690411,24.1289415 L78.0105228,28.2371817 C78.0936773,28.3369482 78.2467097,28.3554762 78.3494301,28.2785135 L78.8455625,27.9100903 C78.9503792,27.8338402 78.9804266,27.6806274 78.9133439,27.5687465 L76.0602334,22.8212883 L80.3835728,26.2161983 C80.4848957,26.2952989 80.637928,26.2810465 80.723179,26.1841305 L81.1068081,25.7494338 C81.1927578,25.6525178 81.1899627,25.4964546 81.1026154,25.4009639 L77.2264938,21.249254 L82.2891405,23.7313009 C82.4044388,23.7883103 82.5511822,23.7412776 82.6154698,23.6293966 L82.8810054,23.159069 C82.9445942,23.0471881 82.9103541,22.8939753 82.8048386,22.8212883 L78.0265947,19.4933643 L83.6433722,20.8957957 C83.7670559,20.9264382 83.9012213,20.8509007 83.9396541,20.7269053 L84.0919877,20.2515894 C84.1311193,20.1290192 84.0668317,19.985783 83.9480394,19.937325 Z M84.8020644,17.3466341 L80.36416,16.5 C80.1565545,17.0689668 79.9078323,17.6171266 79.6206897,18.1387393 L84.7056762,18.312371 C84.8297002,18.316676 84.9402434,18.2126404 84.9537243,18.0834928 L84.9988852,17.6264539 C85.011018,17.4958713 84.9227183,17.3695937 84.8020644,17.3466341 Z M76.9169947,2.41771575 C76.9614975,2.29834227 76.8966291,2.15757817 76.7729265,2.10444662 L76.5805842,2.02233422 C76.4568816,1.96851265 76.2992363,2.01543402 76.2328594,2.12583724 L76.0344828,2.45773692 C76.2720821,2.59988107 76.5051558,2.74961543 76.7314409,2.90625 L76.9169947,2.41771575 Z M80.5172414,15.59375 L84.8003699,14.7497391 C84.9219879,14.7256245 85.0116727,14.5929942 84.9987636,14.456596 L84.9566389,14.0225332 C84.9444091,13.8846279 84.8323031,13.7768657 84.7079674,13.7813872 L80.8943252,13.9230605 C80.8046404,14.4935215 80.6789458,15.0519251 80.5172414,15.59375 Z M80.5172414,13.78125 L83.949535,12.0399262 C84.0654629,11.9820722 84.1289472,11.8166586 84.0937548,11.6740608 L83.9888677,11.2690828 C83.9529852,11.1264849 83.8225664,11.0360371 83.6983579,11.0694458 L80.6048773,11.9030322 C80.6159181,12.5394262 80.585556,13.1668569 80.5172414,13.78125 Z M81.3494605,6.18328466 C81.4330786,6.10181842 81.4350695,5.96624401 81.3560968,5.88173798 L81.1822243,5.69874292 C81.1019244,5.61423689 80.9592427,5.60025388 80.8616883,5.66773711 L79.6206897,6.52495651 C79.7885895,6.82042362 79.940562,7.12501009 80.0759437,7.4375 L81.3494605,6.18328466 Z M80.7615579,11.0625 L83.0986198,9.19113653 C83.2033269,9.10784142 83.2382293,8.93490491 83.1761031,8.80877231 L83.0218346,8.48828446 C82.9604065,8.36215187 82.8145146,8.30741508 82.6986388,8.36929145 L80.5172414,9.5227304 C80.6247406,10.0232943 80.7064122,10.5373442 80.7615579,11.0625 Z M78.2644714,5.625 C78.1268777,5.32601397 77.9812493,5.03608811 77.8275862,4.75686975 L78.2740126,3.91180179 C78.3342726,3.79813767 78.443745,3.77919365 78.5165592,3.86979548 L78.6521442,4.039468 C78.7249584,4.12924617 78.7465516,4.30962618 78.6983436,4.4389397 L78.2644714,5.625 Z" id="Fill-7" fill="white"></path>
            </g>
        </g>
    </g>
</svg>